<svg width="120" height="120" viewBox="0 0 120 120" fill="none" xmlns="http://www.w3.org/2000/svg">
<rect width="120" height="120" fill="none"/>
<path d="M20 30C20 30 44.379 34 60 34C75.621 34 100 30 100 30V50V50C73.7375 56.5656 46.2625 56.5656 20 50V50V30Z" fill="#059669"/>
<path d="M20 54C20 54 44.379 58 60 58C75.621 58 100 54 100 54V74V74C73.7375 80.5656 46.2625 80.5656 20 74V74V54Z" fill="#059669"/>
<path d="M20 79C20 79 44.379 83 60 83C75.621 83 100 79 100 79V93.4263C100 96.702 97.7706 99.5573 94.5928 100.352V100.352C71.8804 106.03 48.1196 106.03 25.4072 100.352V100.352C22.2294 99.5573 20 96.702 20 93.4263V79Z" fill="#059669"/>
<ellipse cx="60" cy="24.5" rx="40" ry="5.5" fill="#059669"/>
</svg>
